<svg width="652" height="218" viewBox="0 0 652 218" fill="none" xmlns="http://www.w3.org/2000/svg">
<g clip-path="url(#clip0_45_1963)">
<path d="M75.86 162.43H106.32C105.69 166.59 104.49 170.12 102.73 173.02C100.96 175.92 98.72 178.29 96.01 180.11C93.3 181.94 90.24 183.26 86.83 184.08C83.43 184.9 79.89 185.31 76.24 185.31C70.06 185.31 64.63 184.27 59.97 182.19C55.3 180.11 51.39 177.18 48.24 173.39C45.09 169.61 42.72 165.13 41.15 159.96C39.57 154.79 38.79 149.18 38.79 143.12C38.79 136.44 39.7 130.38 41.53 124.96C43.36 119.54 45.88 114.9 49.1 111.06C52.32 107.21 56.19 104.25 60.74 102.17C65.28 100.09 70.32 99.05 75.87 99.05C82.55 99.05 88.51 100.75 93.75 104.16C98.98 107.57 103.24 113.18 106.52 121L141.71 106.43C135.15 92.94 126.26 82.97 115.03 76.54C103.8 70.11 90.75 66.89 75.87 66.89C64.39 66.89 53.99 68.72 44.65 72.38C35.31 76.04 27.34 81.15 20.72 87.7C14.1 94.26 8.99001 102.17 5.40001 111.44C1.81001 120.71 0.0100098 130.9 0.0100098 141.99C0.0100098 153.08 1.84001 163.46 5.50001 172.73C9.16001 182 14.26 189.95 20.82 196.57C27.38 203.19 35.23 208.33 44.37 211.99C53.51 215.65 63.63 217.48 74.73 217.48C82.8 217.48 90.49 216.47 97.81 214.45C105.12 212.43 111.84 209.5 117.96 205.65C124.08 201.8 129.41 197.01 133.95 191.27C138.49 185.53 142.09 178.94 144.73 171.5C146.62 166.2 147.88 160.46 148.51 154.28C149.14 148.1 149.46 141.23 149.46 133.66H75.86V162.42V162.43Z" fill="#020100"/>
<path d="M245.55 148.43C245.55 152.59 245.39 156.85 245.08 161.2C244.76 165.55 243.79 169.5 242.15 173.03C240.51 176.56 238.02 179.43 234.68 181.64C231.34 183.85 226.57 184.95 220.4 184.95C214.23 184.95 209.43 183.85 206.02 181.64C202.61 179.43 200.12 176.56 198.55 173.03C196.97 169.5 196.03 165.56 195.71 161.2C195.39 156.85 195.24 152.59 195.24 148.43V70.86H158.16V153.54C158.16 175.74 163.27 191.95 173.48 202.16C183.7 212.38 199.33 217.48 220.4 217.48C241.47 217.48 257.07 212.37 267.23 202.16C277.38 191.94 282.46 175.74 282.46 153.54V70.86H245.57V148.43H245.55Z" fill="#020100"/>
<path d="M650.58 147.4L591.83 73.09L650.58 0.859985H603.03L556.07 64.29V86.47L603.03 147.4H650.58Z" fill="#020100"/>
<path d="M546.95 86.56V0.859985H508.44V147.48H546.95V86.56Z" fill="#020100"/>
<path d="M412.12 18.08L368.3 53.65C354.58 64.79 337.45 70.87 319.77 70.87H290.85V217.48H319.77C337.44 217.48 354.58 211.4 368.3 200.26L412.12 164.69C425.84 153.55 442.97 147.47 460.65 147.47H499.57V0.859985H460.65C442.97 0.859985 425.84 6.93998 412.12 18.08Z" fill="#020100"/>
<path d="M458.9 173.37H452.99V201.59H458.9V173.37Z" fill="#020100"/>
<path d="M483.27 192.34H482.91L475.11 173.37H468.15V201.59H473.62V182.72H473.94L481.13 199.97H485.07L492.24 182.72H492.56V201.59H498.03V173.37H491.09L483.27 192.34Z" fill="#020100"/>
<path d="M519.05 173.37H507.28V201.59H513.19V192.83H518.76C521.75 192.83 524.17 191.94 526.04 190.15C527.91 188.36 528.84 186.02 528.84 183.13C528.84 180.24 527.93 177.85 526.12 176.05C524.32 174.26 521.97 173.37 519.06 173.37H519.05ZM521.42 186.79C520.49 187.62 519.18 188.04 517.47 188.04H513.19V178.22H517.49C519.2 178.22 520.52 178.64 521.44 179.47C522.37 180.33 522.83 181.56 522.83 183.15C522.83 184.74 522.36 185.94 521.42 186.79Z" fill="#020100"/>
<path d="M549.02 172.65C544.86 172.65 541.56 173.97 539.12 176.62C536.66 179.29 535.42 182.91 535.42 187.47C535.42 192.03 536.64 195.67 539.08 198.32C541.52 200.98 544.83 202.31 549.02 202.31C553.21 202.31 556.5 200.98 558.94 198.32C561.37 195.66 562.58 192.04 562.58 187.47C562.58 182.9 561.36 179.3 558.92 176.64C556.49 173.98 553.2 172.65 549.02 172.65ZM554.52 194.52C553.15 196.27 551.32 197.14 549.02 197.14C546.72 197.14 544.87 196.27 543.5 194.52C542.14 192.77 541.47 190.43 541.47 187.48C541.47 184.53 542.15 182.19 543.52 180.44C544.89 178.71 546.72 177.84 549.02 177.84C551.32 177.84 553.15 178.71 554.52 180.44C555.88 182.19 556.56 184.53 556.56 187.48C556.56 190.43 555.88 192.77 554.52 194.52Z" fill="#020100"/>
<path d="M591.08 187.29C591.98 185.87 592.43 184.25 592.43 182.42C592.43 179.62 591.54 177.41 589.75 175.79C587.96 174.17 585.52 173.37 582.41 173.37H570.56V201.59H576.47V191.36H581.3L586.56 201.59H593.25L587.3 190.44C588.9 189.8 590.16 188.75 591.07 187.29H591.08ZM585.13 185.69C584.3 186.45 583.14 186.82 581.65 186.82H576.47V178.14H581.59C583.05 178.14 584.21 178.53 585.07 179.31C585.93 180.09 586.36 181.15 586.36 182.5C586.36 183.85 585.95 184.92 585.13 185.69Z" fill="#020100"/>
<path d="M599.16 178.42H607.62V201.59H613.53V178.42H622V173.37H599.16V178.42Z" fill="#020100"/>
<path d="M649.16 187.94C647.87 186.66 645.81 185.72 642.98 185.12L639.58 184.4C637.92 184.05 636.74 183.61 636.02 183.07C635.29 182.54 634.92 181.83 634.92 180.96C634.92 179.89 635.37 179.04 636.27 178.4C637.16 177.76 638.34 177.44 639.83 177.44C641.32 177.44 642.44 177.78 643.41 178.46C644.35 179.14 644.89 180.04 645.03 181.16H650.58C650.49 178.64 649.45 176.6 647.45 175.02C645.44 173.44 642.89 172.65 639.78 172.65C636.52 172.65 633.9 173.45 631.94 175.06C629.97 176.68 628.99 178.81 628.99 181.48C628.99 185.78 631.55 188.47 636.66 189.54L640.34 190.32C642.07 190.69 643.32 191.15 644.08 191.71C644.84 192.27 645.21 193 645.21 193.9C645.21 194.97 644.72 195.84 643.74 196.5C642.76 197.18 641.5 197.52 639.97 197.52C638.3 197.52 636.94 197.18 635.88 196.5C634.8 195.82 634.19 194.91 634.06 193.76H628.35C628.45 196.39 629.52 198.48 631.56 200.02C633.6 201.56 636.29 202.33 639.66 202.33C643.2 202.33 646 201.52 648.03 199.89C650.08 198.25 651.1 196 651.1 193.16C651.1 190.97 650.45 189.24 649.16 187.96V187.94Z" fill="#020100"/>
</g>
<defs>
<clipPath id="clip0_45_1963">
<rect width="651.1" height="216.62" fill="white" transform="translate(0 0.859985)"/>
</clipPath>
</defs>
</svg>
